<?xml version="1.0" standalone="no"?>
<!DOCTYPE svg PUBLIC "-//W3C//DTD SVG 20010904//EN"
 "http://www.w3.org/TR/2001/REC-SVG-20010904/DTD/svg10.dtd">
<svg version="1.0" xmlns="http://www.w3.org/2000/svg"
 width="36" height="36"  viewBox="0 0 512.000000 512.000000"
 preserveAspectRatio="xMidYMid meet">

<g transform="translate(0.000000,512.000000) scale(0.100000,-0.100000)"
fill="white" stroke="none">
<path d="M335 4866 c-37 -16 -70 -52 -84 -89 -8 -20 -11 -691 -11 -2219 0
-2439 -6 -2229 68 -2286 l35 -27 1658 0 1658 0 27 21 c60 44 69 67 72 184 l4
109 428 3 c415 3 429 4 456 24 15 11 37 33 48 48 21 27 21 37 21 646 0 609 0
619 -21 646 -11 15 -33 37 -48 48 -27 20 -41 21 -457 24 l-429 3 0 319 0 319
509 3 c497 3 510 4 537 24 64 47 69 63 69 214 0 151 -5 167 -69 214 -27 20
-40 21 -537 24 l-509 3 -2 619 -3 620 -258 257 -257 258 -1438 2 c-1182 2
-1442 0 -1467 -11z m385 -681 l0 -536 25 -24 c13 -14 36 -25 51 -25 15 0 99
44 209 110 101 61 188 110 195 110 7 0 94 -49 195 -110 110 -66 194 -110 209
-110 15 0 38 11 51 25 l25 24 0 536 0 535 719 0 720 0 3 -189 c3 -207 6 -216
72 -265 25 -19 44 -21 217 -24 l189 -3 0 -560 0 -559 -215 0 c-160 0 -224 -4
-248 -14 -43 -17 -85 -68 -93 -111 l-6 -35 -159 0 -159 0 0 80 0 80 54 0 c85
0 90 8 141 210 25 96 45 185 45 198 0 13 -11 34 -25 47 l-24 25 -511 0 -511 0
-24 -25 c-14 -13 -25 -34 -25 -47 0 -13 20 -102 45 -198 51 -202 56 -210 141
-210 l54 0 0 -240 0 -240 -54 0 c-85 0 -90 -8 -141 -210 -25 -96 -45 -185 -45
-198 0 -13 11 -34 25 -47 l24 -25 511 0 511 0 24 25 c14 13 25 34 25 47 0 13
-20 102 -45 198 -51 202 -56 210 -141 210 l-54 0 0 80 0 80 159 0 159 0 6 -35
c8 -43 50 -94 93 -111 24 -10 88 -14 248 -14 l215 0 0 -320 0 -320 -1389 -2
c-1386 -3 -1390 -3 -1417 -24 -15 -11 -37 -33 -48 -48 -21 -27 -21 -37 -21
-646 0 -609 0 -619 21 -646 11 -15 33 -37 48 -48 27 -21 31 -21 1417 -24
l1389 -2 0 -80 0 -80 -1600 0 -1600 0 0 2160 0 2160 160 0 160 0 0 -535z m800
86 l0 -449 -149 89 c-82 49 -159 89 -171 89 -12 0 -89 -40 -171 -90 l-149 -89
0 449 0 450 320 0 320 0 0 -449z m1865 229 l100 -100 -103 0 -102 0 0 100 c0
55 1 100 3 100 1 0 47 -45 102 -100z m-627 -1140 l-20 -80 -338 0 -338 0 -20
80 -20 80 378 0 378 0 -20 -80z m-198 -480 l0 -240 -160 0 -160 0 0 240 0 240
160 0 160 0 0 -240z m1520 0 l0 -80 -440 0 -440 0 0 80 0 80 440 0 440 0 0
-80z m320 0 l0 -80 -80 0 -80 0 0 80 0 80 80 0 80 0 0 -80z m320 0 l0 -80 -80
0 -80 0 0 80 0 80 80 0 80 0 0 -80z m-1962 -480 l20 -80 -378 0 -378 0 20 80
20 80 338 0 338 0 20 -80z m1802 -1120 l0 -560 -1840 0 -1840 0 0 560 0 560
1840 0 1840 0 0 -560z"/>
<path d="M745 3095 c-16 -15 -25 -36 -25 -55 0 -19 9 -40 25 -55 l24 -25 431
0 431 0 24 25 c16 15 25 36 25 55 0 19 -9 40 -25 55 l-24 25 -431 0 -431 0
-24 -25z"/>
<path d="M745 2775 c-16 -15 -25 -36 -25 -55 0 -19 9 -40 25 -55 l24 -25 431
0 431 0 24 25 c16 15 25 36 25 55 0 19 -9 40 -25 55 l-24 25 -431 0 -431 0
-24 -25z"/>
<path d="M745 2455 c-16 -15 -25 -36 -25 -55 0 -19 9 -40 25 -55 l24 -25 351
0 351 0 24 25 c16 15 25 36 25 55 0 19 -9 40 -25 55 l-24 25 -351 0 -351 0
-24 -25z"/>
<path d="M1226 1657 l-26 -26 0 -351 0 -351 26 -26 c25 -25 26 -25 167 -21
134 3 146 5 209 35 93 44 151 100 196 191 35 72 37 81 37 171 0 87 -3 102 -32
163 -44 93 -100 151 -191 196 -75 36 -77 37 -218 41 -142 3 -143 3 -168 -22z
m288 -149 c55 -16 138 -99 154 -154 28 -94 8 -169 -63 -239 -56 -57 -102 -75
-189 -75 l-56 0 0 240 0 240 56 0 c31 0 75 -5 98 -12z"/>
<path d="M2025 1655 l-25 -24 0 -351 0 -351 25 -24 c32 -33 78 -33 110 0 l25
24 0 261 0 260 67 -45 c37 -25 79 -45 93 -45 14 0 56 20 93 45 l67 45 0 -260
0 -261 25 -24 c32 -33 78 -33 110 0 l25 24 0 351 0 351 -25 24 c-39 40 -68 32
-187 -46 l-108 -72 -108 72 c-119 78 -148 86 -187 46z"/>
<path d="M3106 1669 c-62 -15 -153 -68 -197 -116 -22 -24 -55 -74 -72 -111
-29 -61 -32 -76 -32 -163 0 -90 2 -99 37 -171 45 -91 103 -147 196 -191 63
-30 75 -32 209 -35 141 -4 142 -4 167 21 34 34 34 80 1 112 -23 24 -31 25
-136 25 -61 0 -130 5 -153 12 -55 16 -138 99 -154 154 -28 94 -8 169 63 239
63 64 100 75 244 75 105 0 113 1 136 25 16 15 25 36 25 55 0 19 -9 40 -25 55
-23 24 -29 25 -147 24 -68 -1 -140 -5 -162 -10z"/>
<path d="M3872 1663 c-23 -19 -272 -672 -272 -712 0 -31 43 -71 77 -71 45 0
69 24 94 95 l23 65 126 0 126 0 23 -65 c25 -71 49 -95 94 -95 34 0 77 40 77
71 0 40 -249 693 -272 712 -11 9 -33 17 -48 17 -15 0 -37 -8 -48 -17z m81
-376 c15 -41 27 -77 27 -80 0 -4 -27 -7 -60 -7 -33 0 -60 3 -60 7 0 13 55 153
60 153 3 0 18 -33 33 -73z"/>
</g>
</svg>
